Coordinates
version=1
nRows=14
nColumns=33
inDegrees=yes

Units are S.I. units (second, meters, Newtons, ...)
Angles are in degrees.

endheader
time	ground_thorax_rot_x	ground_thorax_rot_y	ground_thorax_rot_z	ground_thorax_tx	ground_thorax_ty	ground_thorax_tz	clav_prot_r	clav_elev_r	scapula_abduction_r	scapula_elevation_r	scapula_upward_rot_r	scapula_winging_r	shoulder_elv_r	plane_of_elev_r	axial_rot_r	elbow_flexion_r	pro_sup_r	wrist_flex_r	wrist_dev_r	clav_prot_l	clav_elev_l	scapula_abduction_l	scapula_elevation_l	scapula_upward_rot_l	scapula_winging_l	shoulder_elv_l	plane_of_elev_l	axial_rot_l	elbow_flexion_l	pro_sup_l	wrist_flex_l	wrist_dev_l	
3.1900	-40.599625	-11.143794	14.167168	-242.922559	821.564548	1.041635	10.626260	-45.000000	40.537083	-45.000000	-45.000000	2418.822868	-826.313421	147.830134	180.000000	1442.685203	51.512692	26.192478	13.593030	15.233408	38.118111	-37.586106	-45.000000	-45.000000	-994.755197	-454.410323	133.023766	-155.730994	2165.464428	26.656245	8.138230	-22.661640	
3.2000	-40.608335	-11.098141	14.267943	-242.958567	820.975678	0.954423	10.537891	-45.000000	40.478501	-45.000000	-45.000000	2418.888882	-826.389879	147.897777	180.000000	1442.698348	51.772409	26.236063	13.486589	15.294639	38.170640	-37.545901	-45.000000	-44.999999	-994.818640	-454.498089	133.084807	-155.903641	2165.471142	26.779934	8.122934	-22.724049	
3.2100	-40.624910	-11.034994	14.347102	-242.934898	820.389526	0.874094	10.447146	-45.000000	40.416737	-45.000000	-45.000000	2418.965974	-826.471665	147.961811	180.000000	1442.732156	52.008587	26.269912	13.379769	15.347824	38.259464	-37.531679	-45.000000	-44.999999	-994.874331	-454.579732	133.139558	-156.061306	2165.486971	26.930366	8.126052	-22.810403	
3.2200	-40.617318	-11.027972	14.467430	-242.775958	819.804230	0.808936	10.407394	-45.000000	40.369269	-45.000000	-45.000000	2419.026224	-826.537609	148.010750	180.000000	1442.731595	52.213356	26.297209	13.283916	15.399008	38.276669	-37.497896	-45.000000	-44.999998	-994.931245	-454.634629	133.166930	-156.102416	2165.479990	27.120934	8.074546	-22.863175	
3.2300	-40.600913	-11.022892	14.569024	-242.485283	819.226426	0.756474	10.394387	-45.000000	40.344875	-45.000000	-45.000000	2419.080176	-826.606230	148.038330	180.000000	1442.737685	52.379447	26.319870	13.195177	15.437698	38.281185	-37.471046	-45.000000	-44.999997	-994.987859	-454.668351	133.170145	-156.077876	2165.482795	27.362826	7.998043	-22.913849	
3.2400	-40.571004	-11.032321	14.673203	-242.060357	818.663842	0.714452	10.404825	-45.000000	40.332112	-45.000000	-45.000000	2419.132463	-826.667741	148.054897	180.000000	1442.736478	52.508181	26.333358	13.112866	15.468364	38.265443	-37.448595	-45.000000	-44.999994	-995.042408	-454.678769	133.153570	-156.000149	2165.494088	27.663753	7.890204	-22.960296	
3.2500	-40.533695	-11.032103	14.750669	-241.523113	818.126923	0.677593	10.423636	-45.000000	40.341099	-45.000000	-45.000000	2419.187085	-826.730688	148.060768	180.000000	1442.750280	52.603544	26.342718	13.033319	15.488340	38.259463	-37.435985	-45.000000	-44.999989	-995.097543	-454.674564	133.127012	-155.907677	2165.528539	28.024172	7.762785	-23.012554	
3.2600	-40.494388	-11.022899	14.816738	-240.907260	817.628252	0.640364	10.442647	-45.000000	40.353995	-45.000000	-45.000000	2419.250730	-826.789557	148.066428	180.000000	1442.761113	52.678389	26.344492	12.955089	15.505740	38.256184	-37.440291	-45.000000	-44.999980	-995.146992	-454.658095	133.098123	-155.832514	2165.581857	28.435141	7.619813	-23.069415	
3.2700	-40.457482	-10.992972	14.859121	-240.245594	817.180459	0.599195	10.454480	-45.000000	40.369388	-45.000000	-45.000000	2419.320504	-826.844768	148.067273	180.000000	1442.777192	52.743041	26.344387	12.877188	15.527015	38.267764	-37.463764	-45.000000	-44.999965	-995.189484	-454.640152	133.070827	-155.794297	2165.651058	28.885543	7.466184	-23.126244	
3.2800	-40.422806	-10.952693	14.898586	-239.567213	816.797001	0.553264	10.460275	-45.000000	40.375121	-45.000000	-45.000000	2419.393284	-826.886468	148.069806	180.000000	1442.788404	52.806875	26.340179	12.799641	15.556248	38.273489	-37.507923	-45.000000	-44.999937	-995.221819	-454.629054	133.051873	-155.795647	2165.724158	29.359504	7.303521	-23.175211	
3.2900	-40.395161	-10.897295	14.923320	-238.894127	816.491125	0.503925	10.456996	-45.000000	40.375890	-45.000000	-45.000000	2419.470929	-826.910481	148.071268	180.000000	1442.806585	52.872387	26.334214	12.722955	15.595834	38.295569	-37.565155	-45.000000	-44.999886	-995.243720	-454.628044	133.039671	-155.842552	2165.800975	29.840034	7.144583	-23.217738	
3.3000	-40.377235	-10.818544	14.928415	-238.239243	816.275838	0.453521	10.447591	-45.000000	40.374721	-45.000000	-45.000000	2419.545567	-826.920274	148.066817	180.000000	1442.834118	52.939297	26.327747	12.650580	15.637982	38.314263	-37.638906	-45.000000	-44.999797	-995.256306	-454.636497	133.032952	-155.932995	2165.885554	30.310744	6.993708	-23.252911	
3.3100	-40.368933	-10.711740	14.912105	-237.605434	816.162263	0.403930	10.427478	-45.000000	40.368928	-45.000000	-45.000000	2419.622843	-826.909236	148.061892	180.000000	1442.880794	53.001974	26.321963	12.584049	15.684869	38.345992	-37.732076	-45.000000	-44.999636	-995.261900	-454.656569	133.031539	-156.064521	2165.970950	30.757702	6.860555	-23.282046	
3.3200	-40.369328	-10.583942	14.872515	-236.985979	816.158534	0.355401	10.399639	-45.000000	40.369990	-45.000000	-45.000000	2419.693212	-826.885650	148.046185	180.000000	1442.952034	53.054663	26.317819	12.525686	15.730108	38.371549	-37.831127	-45.000000	-44.999348	-995.261945	-454.679421	133.035325	-156.226652	2166.064334	31.167538	6.743966	-23.305161	
